<mxfile host="app.diagrams.net" agent="Mozilla/5.0 (Windows NT 10.0; Win64; x64) AppleWebKit/537.36 (KHTML, like Gecko) Chrome/135.0.0.0 Safari/537.36" version="26.3.0">
  <diagram id="C5RBs43oDa-KdzZeNtuy" name="Page-1">
    <mxGraphModel dx="1042" dy="608" grid="1" gridSize="10" guides="1" tooltips="1" connect="1" arrows="1" fold="1" page="1" pageScale="1" pageWidth="827" pageHeight="1169" math="0" shadow="0">
      <root>
        <mxCell id="WIyWlLk6GJQsqaUBKTNV-0" />
        <mxCell id="WIyWlLk6GJQsqaUBKTNV-1" parent="WIyWlLk6GJQsqaUBKTNV-0" />
        <mxCell id="agTHgtU8DP_zTLwyk5DR-0" style="edgeStyle=orthogonalEdgeStyle;rounded=0;orthogonalLoop=1;jettySize=auto;html=1;" edge="1" parent="WIyWlLk6GJQsqaUBKTNV-1" source="agTHgtU8DP_zTLwyk5DR-1" target="agTHgtU8DP_zTLwyk5DR-5">
          <mxGeometry relative="1" as="geometry" />
        </mxCell>
        <mxCell id="agTHgtU8DP_zTLwyk5DR-1" value="Start" style="rounded=1;whiteSpace=wrap;html=1;fontSize=12;glass=0;strokeWidth=1;shadow=0;" vertex="1" parent="WIyWlLk6GJQsqaUBKTNV-1">
          <mxGeometry x="354" y="80" width="120" height="40" as="geometry" />
        </mxCell>
        <mxCell id="agTHgtU8DP_zTLwyk5DR-2" style="edgeStyle=orthogonalEdgeStyle;rounded=0;orthogonalLoop=1;jettySize=auto;html=1;" edge="1" parent="WIyWlLk6GJQsqaUBKTNV-1" source="agTHgtU8DP_zTLwyk5DR-5">
          <mxGeometry relative="1" as="geometry">
            <mxPoint x="414" y="350" as="targetPoint" />
          </mxGeometry>
        </mxCell>
        <mxCell id="agTHgtU8DP_zTLwyk5DR-3" style="edgeStyle=orthogonalEdgeStyle;rounded=0;orthogonalLoop=1;jettySize=auto;html=1;entryX=0.5;entryY=0;entryDx=0;entryDy=0;" edge="1" parent="WIyWlLk6GJQsqaUBKTNV-1">
          <mxGeometry relative="1" as="geometry">
            <mxPoint x="560" y="360" as="targetPoint" />
            <mxPoint x="464" y="260" as="sourcePoint" />
          </mxGeometry>
        </mxCell>
        <mxCell id="agTHgtU8DP_zTLwyk5DR-4" style="edgeStyle=orthogonalEdgeStyle;rounded=0;orthogonalLoop=1;jettySize=auto;html=1;" edge="1" parent="WIyWlLk6GJQsqaUBKTNV-1">
          <mxGeometry relative="1" as="geometry">
            <mxPoint x="260" y="355" as="targetPoint" />
            <mxPoint x="364" y="255" as="sourcePoint" />
            <Array as="points">
              <mxPoint x="261" y="255" />
            </Array>
          </mxGeometry>
        </mxCell>
        <mxCell id="agTHgtU8DP_zTLwyk5DR-5" value="Input what to calculate" style="shape=parallelogram;perimeter=parallelogramPerimeter;whiteSpace=wrap;html=1;fixedSize=1;" vertex="1" parent="WIyWlLk6GJQsqaUBKTNV-1">
          <mxGeometry x="354" y="220" width="120" height="60" as="geometry" />
        </mxCell>
        <mxCell id="agTHgtU8DP_zTLwyk5DR-6" style="edgeStyle=orthogonalEdgeStyle;rounded=0;orthogonalLoop=1;jettySize=auto;html=1;entryX=0.5;entryY=0;entryDx=0;entryDy=0;" edge="1" parent="WIyWlLk6GJQsqaUBKTNV-1" source="agTHgtU8DP_zTLwyk5DR-7" target="agTHgtU8DP_zTLwyk5DR-13">
          <mxGeometry relative="1" as="geometry">
            <mxPoint x="560" y="520" as="targetPoint" />
          </mxGeometry>
        </mxCell>
        <mxCell id="agTHgtU8DP_zTLwyk5DR-7" value="Simple&lt;div&gt;interest&lt;/div&gt;" style="rhombus;whiteSpace=wrap;html=1;" vertex="1" parent="WIyWlLk6GJQsqaUBKTNV-1">
          <mxGeometry x="520" y="360" width="80" height="80" as="geometry" />
        </mxCell>
        <mxCell id="agTHgtU8DP_zTLwyk5DR-8" style="edgeStyle=orthogonalEdgeStyle;rounded=0;orthogonalLoop=1;jettySize=auto;html=1;entryX=0.507;entryY=-0.1;entryDx=0;entryDy=0;entryPerimeter=0;" edge="1" parent="WIyWlLk6GJQsqaUBKTNV-1" source="agTHgtU8DP_zTLwyk5DR-9" target="agTHgtU8DP_zTLwyk5DR-15">
          <mxGeometry relative="1" as="geometry">
            <mxPoint x="414" y="510" as="targetPoint" />
          </mxGeometry>
        </mxCell>
        <mxCell id="agTHgtU8DP_zTLwyk5DR-9" value="Compound interest" style="rhombus;whiteSpace=wrap;html=1;" vertex="1" parent="WIyWlLk6GJQsqaUBKTNV-1">
          <mxGeometry x="374" y="360" width="80" height="80" as="geometry" />
        </mxCell>
        <mxCell id="agTHgtU8DP_zTLwyk5DR-10" style="edgeStyle=orthogonalEdgeStyle;rounded=0;orthogonalLoop=1;jettySize=auto;html=1;" edge="1" parent="WIyWlLk6GJQsqaUBKTNV-1" source="agTHgtU8DP_zTLwyk5DR-11">
          <mxGeometry relative="1" as="geometry">
            <mxPoint x="260" y="520" as="targetPoint" />
          </mxGeometry>
        </mxCell>
        <mxCell id="agTHgtU8DP_zTLwyk5DR-11" value="Annuity&lt;div&gt;plan&lt;/div&gt;" style="rhombus;whiteSpace=wrap;html=1;" vertex="1" parent="WIyWlLk6GJQsqaUBKTNV-1">
          <mxGeometry x="220" y="360" width="80" height="80" as="geometry" />
        </mxCell>
        <mxCell id="agTHgtU8DP_zTLwyk5DR-12" style="edgeStyle=orthogonalEdgeStyle;rounded=0;orthogonalLoop=1;jettySize=auto;html=1;entryX=0.5;entryY=0;entryDx=0;entryDy=0;" edge="1" parent="WIyWlLk6GJQsqaUBKTNV-1" source="agTHgtU8DP_zTLwyk5DR-13" target="agTHgtU8DP_zTLwyk5DR-19">
          <mxGeometry relative="1" as="geometry" />
        </mxCell>
        <mxCell id="agTHgtU8DP_zTLwyk5DR-13" value="Input&amp;nbsp;&lt;div&gt;Principal,&amp;nbsp;&lt;/div&gt;&lt;div&gt;Rate, Time&lt;/div&gt;" style="shape=parallelogram;perimeter=parallelogramPerimeter;whiteSpace=wrap;html=1;fixedSize=1;" vertex="1" parent="WIyWlLk6GJQsqaUBKTNV-1">
          <mxGeometry x="500" y="525" width="120" height="60" as="geometry" />
        </mxCell>
        <mxCell id="agTHgtU8DP_zTLwyk5DR-14" style="edgeStyle=orthogonalEdgeStyle;rounded=0;orthogonalLoop=1;jettySize=auto;html=1;entryX=0.5;entryY=0;entryDx=0;entryDy=0;" edge="1" parent="WIyWlLk6GJQsqaUBKTNV-1" source="agTHgtU8DP_zTLwyk5DR-15" target="agTHgtU8DP_zTLwyk5DR-21">
          <mxGeometry relative="1" as="geometry" />
        </mxCell>
        <mxCell id="agTHgtU8DP_zTLwyk5DR-15" value="Input&amp;nbsp;&lt;div&gt;Principal,&amp;nbsp;&lt;/div&gt;&lt;div&gt;Rate, Time, Frequency&lt;/div&gt;" style="shape=parallelogram;perimeter=parallelogramPerimeter;whiteSpace=wrap;html=1;fixedSize=1;" vertex="1" parent="WIyWlLk6GJQsqaUBKTNV-1">
          <mxGeometry x="354" y="525" width="120" height="60" as="geometry" />
        </mxCell>
        <mxCell id="agTHgtU8DP_zTLwyk5DR-16" style="edgeStyle=orthogonalEdgeStyle;rounded=0;orthogonalLoop=1;jettySize=auto;html=1;entryX=0.5;entryY=0;entryDx=0;entryDy=0;" edge="1" parent="WIyWlLk6GJQsqaUBKTNV-1" source="agTHgtU8DP_zTLwyk5DR-17" target="agTHgtU8DP_zTLwyk5DR-23">
          <mxGeometry relative="1" as="geometry" />
        </mxCell>
        <mxCell id="agTHgtU8DP_zTLwyk5DR-17" value="Input&lt;div&gt;&amp;nbsp;Payment, Rate, Periods&lt;/div&gt;" style="shape=parallelogram;perimeter=parallelogramPerimeter;whiteSpace=wrap;html=1;fixedSize=1;" vertex="1" parent="WIyWlLk6GJQsqaUBKTNV-1">
          <mxGeometry x="200" y="525" width="120" height="60" as="geometry" />
        </mxCell>
        <mxCell id="agTHgtU8DP_zTLwyk5DR-18" style="edgeStyle=orthogonalEdgeStyle;rounded=0;orthogonalLoop=1;jettySize=auto;html=1;entryX=0.5;entryY=0;entryDx=0;entryDy=0;" edge="1" parent="WIyWlLk6GJQsqaUBKTNV-1" source="agTHgtU8DP_zTLwyk5DR-19" target="agTHgtU8DP_zTLwyk5DR-25">
          <mxGeometry relative="1" as="geometry" />
        </mxCell>
        <mxCell id="agTHgtU8DP_zTLwyk5DR-19" value="SI = (P x&amp;nbsp; R x T) / 100" style="rounded=0;whiteSpace=wrap;html=1;" vertex="1" parent="WIyWlLk6GJQsqaUBKTNV-1">
          <mxGeometry x="500" y="680" width="120" height="60" as="geometry" />
        </mxCell>
        <mxCell id="agTHgtU8DP_zTLwyk5DR-20" style="edgeStyle=orthogonalEdgeStyle;rounded=0;orthogonalLoop=1;jettySize=auto;html=1;entryX=0.5;entryY=0;entryDx=0;entryDy=0;" edge="1" parent="WIyWlLk6GJQsqaUBKTNV-1" source="agTHgtU8DP_zTLwyk5DR-21" target="agTHgtU8DP_zTLwyk5DR-27">
          <mxGeometry relative="1" as="geometry" />
        </mxCell>
        <mxCell id="agTHgtU8DP_zTLwyk5DR-21" value="CI = P × (1 + R/(100n))^(n×T) − P" style="rounded=0;whiteSpace=wrap;html=1;" vertex="1" parent="WIyWlLk6GJQsqaUBKTNV-1">
          <mxGeometry x="354" y="680" width="120" height="60" as="geometry" />
        </mxCell>
        <mxCell id="agTHgtU8DP_zTLwyk5DR-22" style="edgeStyle=orthogonalEdgeStyle;rounded=0;orthogonalLoop=1;jettySize=auto;html=1;entryX=0.5;entryY=0;entryDx=0;entryDy=0;" edge="1" parent="WIyWlLk6GJQsqaUBKTNV-1" source="agTHgtU8DP_zTLwyk5DR-23" target="agTHgtU8DP_zTLwyk5DR-29">
          <mxGeometry relative="1" as="geometry" />
        </mxCell>
        <mxCell id="agTHgtU8DP_zTLwyk5DR-23" value="A = PMT × ((1 + R)^n − 1)/R" style="rounded=0;whiteSpace=wrap;html=1;" vertex="1" parent="WIyWlLk6GJQsqaUBKTNV-1">
          <mxGeometry x="200" y="680" width="120" height="60" as="geometry" />
        </mxCell>
        <mxCell id="agTHgtU8DP_zTLwyk5DR-24" style="edgeStyle=orthogonalEdgeStyle;rounded=0;orthogonalLoop=1;jettySize=auto;html=1;entryX=1;entryY=0.5;entryDx=0;entryDy=0;" edge="1" parent="WIyWlLk6GJQsqaUBKTNV-1" source="agTHgtU8DP_zTLwyk5DR-25" target="agTHgtU8DP_zTLwyk5DR-30">
          <mxGeometry relative="1" as="geometry">
            <mxPoint x="490" y="1060" as="targetPoint" />
          </mxGeometry>
        </mxCell>
        <mxCell id="agTHgtU8DP_zTLwyk5DR-25" value="Print&lt;div&gt;Simple Interest&lt;/div&gt;" style="shape=parallelogram;perimeter=parallelogramPerimeter;whiteSpace=wrap;html=1;fixedSize=1;" vertex="1" parent="WIyWlLk6GJQsqaUBKTNV-1">
          <mxGeometry x="500" y="860" width="120" height="60" as="geometry" />
        </mxCell>
        <mxCell id="agTHgtU8DP_zTLwyk5DR-26" style="edgeStyle=orthogonalEdgeStyle;rounded=0;orthogonalLoop=1;jettySize=auto;html=1;entryX=0.5;entryY=0;entryDx=0;entryDy=0;" edge="1" parent="WIyWlLk6GJQsqaUBKTNV-1" source="agTHgtU8DP_zTLwyk5DR-27" target="agTHgtU8DP_zTLwyk5DR-30">
          <mxGeometry relative="1" as="geometry" />
        </mxCell>
        <mxCell id="agTHgtU8DP_zTLwyk5DR-27" value="Print&amp;nbsp;&lt;div&gt;Compound&lt;/div&gt;&lt;div&gt;Interest&lt;/div&gt;" style="shape=parallelogram;perimeter=parallelogramPerimeter;whiteSpace=wrap;html=1;fixedSize=1;" vertex="1" parent="WIyWlLk6GJQsqaUBKTNV-1">
          <mxGeometry x="354" y="860" width="120" height="60" as="geometry" />
        </mxCell>
        <mxCell id="agTHgtU8DP_zTLwyk5DR-28" style="edgeStyle=orthogonalEdgeStyle;rounded=0;orthogonalLoop=1;jettySize=auto;html=1;entryX=0;entryY=0.5;entryDx=0;entryDy=0;" edge="1" parent="WIyWlLk6GJQsqaUBKTNV-1" source="agTHgtU8DP_zTLwyk5DR-29" target="agTHgtU8DP_zTLwyk5DR-30">
          <mxGeometry relative="1" as="geometry" />
        </mxCell>
        <mxCell id="agTHgtU8DP_zTLwyk5DR-29" value="Print&lt;div&gt;Annuity&lt;/div&gt;&lt;div&gt;Plan&lt;/div&gt;" style="shape=parallelogram;perimeter=parallelogramPerimeter;whiteSpace=wrap;html=1;fixedSize=1;" vertex="1" parent="WIyWlLk6GJQsqaUBKTNV-1">
          <mxGeometry x="200" y="860" width="120" height="60" as="geometry" />
        </mxCell>
        <mxCell id="agTHgtU8DP_zTLwyk5DR-30" value="End" style="rounded=1;whiteSpace=wrap;html=1;" vertex="1" parent="WIyWlLk6GJQsqaUBKTNV-1">
          <mxGeometry x="354" y="1020" width="120" height="60" as="geometry" />
        </mxCell>
      </root>
    </mxGraphModel>
  </diagram>
</mxfile>
